<?xml version="1.0" standalone="no"?>
<!DOCTYPE svg PUBLIC "-//W3C//DTD SVG 20010904//EN"
 "http://www.w3.org/TR/2001/REC-SVG-20010904/DTD/svg10.dtd">
<svg version="1.0" xmlns="http://www.w3.org/2000/svg"
 width="250.000000pt" height="250.000000pt" viewBox="0 0 250.000000 250.000000"
 preserveAspectRatio="xMidYMid meet">

<g transform="translate(0.000000,250.000000) scale(0.100000,-0.100000)"
fill="#000000" stroke="none">
<path d="M1039 2081 c-16 -16 -29 -37 -29 -45 0 -14 -16 -16 -107 -16 -60 0
-126 -5 -148 -11 -47 -13 -110 -74 -118 -115 -3 -16 14 -198 38 -404 25 -206
56 -472 70 -590 38 -320 41 -329 105 -373 22 -15 63 -17 400 -17 358 0 377 1
408 20 42 26 67 84 76 175 4 39 27 234 51 435 81 665 86 721 80 751 -9 41 -52
89 -100 110 -31 14 -65 19 -151 19 l-112 0 -12 30 c-23 57 -37 60 -238 60
l-184 0 -29 -29z m392 -21 c10 -6 19 -17 19 -25 0 -13 -31 -15 -200 -15 -195
0 -200 1 -190 19 5 11 15 22 22 24 25 10 329 7 349 -3z m360 -128 c59 -65 89
-62 -541 -62 -635 0 -606 -4 -536 66 l35 35 506 -3 507 -3 29 -33z m29 -120
c0 -9 -25 -224 -55 -477 -30 -253 -62 -515 -70 -582 -14 -125 -31 -175 -64
-193 -13 -6 -152 -10 -381 -10 -394 0 -396 0 -419 58 -10 25 -43 290 -121 956
-16 142 -30 260 -30 262 0 2 256 4 570 4 537 0 570 -1 570 -18z"/>
<path d="M881 1681 c-8 -13 -6 -55 4 -138 8 -65 33 -275 54 -467 22 -193 45
-354 52 -362 16 -20 56 -17 68 5 7 13 2 95 -19 277 -58 515 -79 685 -85 694
-11 18 -64 11 -74 -9z"/>
<path d="M1213 1681 c-9 -14 -12 -136 -12 -457 0 -467 1 -484 48 -484 45 0 46
8 49 470 2 278 -1 446 -7 463 -13 33 -60 38 -78 8z"/>
<path d="M1540 1663 c-5 -21 -21 -141 -35 -268 -14 -126 -36 -328 -51 -448
-27 -233 -26 -247 21 -247 43 0 43 -1 85 370 12 102 32 277 45 389 26 223 24
241 -27 241 -23 0 -29 -6 -38 -37z"/>
</g>
</svg>
